<svg width="32" height="32" viewBox="0 0 32 32" fill="none" xmlns="http://www.w3.org/2000/svg">
<path d="M12.925 3.58327C11.281 4.45218 9.93602 5.18744 9.93631 5.21735C9.93704 5.29453 13.882 7.32158 14.022 7.31664C14.0857 7.31447 14.5477 7.09868 15.0487 6.83715L15.9597 6.36173L16.9547 6.88062L17.9495 7.3996L19.5789 6.65678C22.0339 5.53746 22.2889 5.4148 22.2489 5.37359C22.1959 5.31892 21.3153 4.83894 18.9263 3.5628C17.7716 2.94602 16.651 2.34129 16.4359 2.21892C16.2207 2.09656 16.0154 1.99812 15.9795 2.00003C15.9436 2.00193 14.5691 2.7144 12.925 3.58327ZM5.71447 7.3717L4.00309 8.26861V12.2049C4.00309 14.37 4.02556 16.1413 4.05312 16.1413C4.08059 16.1413 4.9226 15.7709 5.9242 15.3183L7.74531 14.4954V10.3462L8.63522 10.8381C9.32097 11.2168 10.0071 11.5948 10.6937 11.972L11.8623 12.6139L12.3822 12.3753C12.7084 12.2255 13.0338 12.0742 13.3586 11.9214C13.6096 11.8028 14.2257 11.5213 14.7277 11.2956C15.2297 11.0699 15.6944 10.8429 15.7603 10.7911C15.8478 10.7224 14.7805 10.124 11.8125 8.57761C9.57532 7.41197 7.67312 6.46198 7.58539 6.46653C7.49767 6.47108 6.65576 6.87836 5.71447 7.3717ZM22.5574 7.62357C21.3918 8.15745 20.4374 8.61559 20.4363 8.64171C20.4353 8.66781 21.0705 9.05106 21.8481 9.49324C22.6256 9.93553 23.2617 10.321 23.2617 10.3501C23.2617 10.379 22.5737 10.7173 21.7329 11.1018C20.892 11.4863 18.7665 12.4602 17.0095 13.2661L11.1224 15.966C9.6415 16.6453 8.30663 17.2575 8.15604 17.3267C5.13122 18.716 4.29981 19.1015 4.18563 19.1677C4.07082 19.2343 4.04482 19.6214 4.02438 21.564L4 23.881L5.5304 24.6722L7.06076 25.4633L9.18286 24.4916C10.35 23.9572 11.3049 23.492 11.3049 23.4577C11.3049 23.4236 11.0893 23.281 10.8258 23.1407C10.5622 23.0005 10.018 22.6901 9.61638 22.4508C9.21481 22.2114 8.81439 21.9919 8.72647 21.9627C8.63859 21.9337 8.56796 21.8829 8.56939 21.8498C8.57086 21.8167 9.50533 21.3664 10.6459 20.8489C12.8612 19.844 14.5565 19.0694 18.1961 17.3995C19.8236 16.6529 21.4513 15.9068 23.0792 15.1611C24.5099 14.5059 26.1733 13.7407 26.7758 13.4606L27.871 12.9514L27.8954 10.608L27.9199 8.26473L26.3677 7.45638C25.5139 7.01183 24.7842 6.64919 24.7459 6.65052C24.7077 6.65174 23.7228 7.08957 22.5574 7.62357ZM27.4552 16.0776C27.2264 16.1909 26.7746 16.4032 26.4512 16.5492C26.1277 16.6952 25.5139 16.9762 25.0872 17.1737L24.3114 17.5328L24.2937 19.59C24.2839 20.7215 24.2428 21.6422 24.2024 21.6363C24.1106 21.6224 22.6565 20.8658 21.1949 20.0711C20.1399 19.4977 20.0736 19.4749 19.8257 19.5994C19.6824 19.6715 18.8259 20.0613 17.9223 20.4658C17.0186 20.8702 16.2499 21.2275 16.2137 21.2599C16.1776 21.2922 17.9963 22.2922 20.2552 23.4824L24.3622 25.6463L26.1167 24.7254C27.0815 24.219 27.902 23.7571 27.9398 23.699C28.0248 23.5684 28.0175 15.8535 27.9324 15.864C27.8987 15.8681 27.6839 15.9642 27.4552 16.0776ZM17.7397 25.1329C17.4354 25.2656 17.1311 25.3986 16.827 25.5317C15.9085 25.9349 16.0885 25.9482 14.9958 25.3963C14.268 25.0287 13.9542 24.9153 13.8181 24.9704C13.7159 25.0116 12.8369 25.4129 11.8645 25.862C10.8921 26.3112 10.0628 26.6786 10.0216 26.6786C9.61358 26.6786 10.2918 27.0898 12.909 28.4293L15.9783 30L17.2697 29.3531C17.98 28.9973 19.4127 28.2849 20.4534 27.7699C21.4941 27.2548 22.3328 26.82 22.3171 26.8036C22.3012 26.7872 21.4292 26.3329 20.3791 25.794L18.4699 24.8142L17.7397 25.1329Z" fill="white"/>
</svg>
