<svg width="32" height="32" viewBox="0 0 32 32" fill="none" xmlns="http://www.w3.org/2000/svg">
<path d="M4.53271 15.1455C4.53271 15.1455 15.5896 10.5357 19.4243 8.9124C20.8944 8.26315 25.8795 6.18538 25.8795 6.18538C25.8795 6.18538 28.1804 5.27643 27.9886 7.48396C27.9247 8.393 27.4134 11.5745 26.9022 15.0157C26.1352 19.8854 25.3043 25.2095 25.3043 25.2095C25.3043 25.2095 25.1765 26.7029 24.09 26.9626C23.0035 27.2223 21.2139 26.0537 20.8944 25.7939C20.6386 25.5991 16.1009 22.6773 14.4392 21.2488C13.9918 20.8593 13.4805 20.0802 14.503 19.1712C16.8039 17.0285 19.5521 14.3665 21.2139 12.6783C21.9809 11.8991 22.7478 10.0811 19.5521 12.2887C15.0144 15.4702 10.5405 18.4569 10.5405 18.4569C10.5405 18.4569 9.51787 19.1062 7.60051 18.5218C5.68307 17.9375 3.44612 17.1584 3.44612 17.1584C3.44612 17.1584 1.91231 16.1844 4.53271 15.1455Z" fill="white"/>
</svg>
